<?xml version="1.0" encoding="UTF-8" standalone="no"?>
<!-- Created with Inkscape (http://www.inkscape.org/) -->
<svg xmlns:dc="http://purl.org/dc/elements/1.1/" xmlns:cc="http://creativecommons.org/ns#" xmlns:rdf="http://www.w3.org/1999/02/22-rdf-syntax-ns#" xmlns:svg="http://www.w3.org/2000/svg" xmlns="http://www.w3.org/2000/svg" xmlns:sodipodi="http://sodipodi.sourceforge.net/DTD/sodipodi-0.dtd" xmlns:inkscape="http://www.inkscape.org/namespaces/inkscape" id="svg2869" version="1.1" inkscape:version="0.47 r22583" width="134.51416" height="49.298752" xml:space="preserve" sodipodi:docname="USNC News and Notes - July 08.pdf"><metadata id="metadata2875"><rdf:RDF><cc:Work rdf:about=""><dc:format>image/svg+xml</dc:format><dc:type rdf:resource="http://purl.org/dc/dcmitype/StillImage"/><dc:title/></cc:Work></rdf:RDF></metadata><defs id="defs2873"><inkscape:perspective sodipodi:type="inkscape:persp3d" inkscape:vp_x="0 : 0.5 : 1" inkscape:vp_y="0 : 1000 : 0" inkscape:vp_z="1 : 0.5 : 1" inkscape:persp3d-origin="0.5 : 0.33333333 : 1" id="perspective2877"/><clipPath clipPathUnits="userSpaceOnUse" id="clipPath2885"><path d="M 0,792 612,792 612,0 0,0 0,792 z" id="path2887"/></clipPath><clipPath clipPathUnits="userSpaceOnUse" id="clipPath2891"><path d="m 0,792.03 612,0 0,-792 -612,0 0,792 z" id="path2893"/></clipPath><clipPath clipPathUnits="userSpaceOnUse" id="clipPath2947"><path d="m 403.992,767.088 172.008,0 0,-27 -172.008,0 0,27 z" clip-rule="evenodd" id="path2949"/></clipPath><clipPath clipPathUnits="userSpaceOnUse" id="clipPath2953"><path d="M 0,792 612,792 612,0 0,0 0,792 z" id="path2955"/></clipPath><clipPath clipPathUnits="userSpaceOnUse" id="clipPath2959"><path d="m 0,792.03 612,0 0,-792 -612,0 0,792 z" id="path2961"/></clipPath><clipPath clipPathUnits="userSpaceOnUse" id="clipPath2971"><path d="M 0,792 612,792 612,0 0,0 0,792 z" id="path2973"/></clipPath><clipPath clipPathUnits="userSpaceOnUse" id="clipPath2977"><path d="m 0,792.03 612,0 0,-792 -612,0 0,792 z" id="path2979"/></clipPath><clipPath clipPathUnits="userSpaceOnUse" id="clipPath3155"><path d="m 220,658.657 172,0 0,-99.747 -172,0 0,99.747 z" clip-rule="evenodd" id="path3157"/></clipPath><clipPath clipPathUnits="userSpaceOnUse" id="clipPath3161"><path d="M 0,792 612,792 612,0 0,0 0,792 z" id="path3163"/></clipPath><clipPath clipPathUnits="userSpaceOnUse" id="clipPath3167"><path d="m 0,792.03 612,0 0,-792 -612,0 0,792 z" id="path3169"/></clipPath><clipPath clipPathUnits="userSpaceOnUse" id="clipPath3179"><path d="M 0,792 612,792 612,0 0,0 0,792 z" id="path3181"/></clipPath><clipPath clipPathUnits="userSpaceOnUse" id="clipPath3185"><path d="m 0,792.03 612,0 0,-792 -612,0 0,792 z" id="path3187"/></clipPath><clipPath clipPathUnits="userSpaceOnUse" id="clipPath3295"><path d="m 352.806,318.794 33.58,0 0,-64.025 -33.58,0 0,64.025 z" clip-rule="evenodd" id="path3297"/></clipPath><clipPath clipPathUnits="userSpaceOnUse" id="clipPath3301"><path d="M 0,792 612,792 612,0 0,0 0,792 z" id="path3303"/></clipPath><clipPath clipPathUnits="userSpaceOnUse" id="clipPath3307"><path d="m 0,792.03 612,0 0,-792 -612,0 0,792 z" id="path3309"/></clipPath><clipPath clipPathUnits="userSpaceOnUse" id="clipPath3319"><path d="M 0,792 612,792 612,0 0,0 0,792 z" id="path3321"/></clipPath><clipPath clipPathUnits="userSpaceOnUse" id="clipPath3325"><path d="m 0,792.03 612,0 0,-792 -612,0 0,792 z" id="path3327"/></clipPath><clipPath clipPathUnits="userSpaceOnUse" id="clipPath3445"><path d="m 495.179,657.645 74.5,0 0,-83.344 -74.5,0 0,83.344 z" clip-rule="evenodd" id="path3447"/></clipPath><clipPath clipPathUnits="userSpaceOnUse" id="clipPath3451"><path d="M 0,792 612,792 612,0 0,0 0,792 z" id="path3453"/></clipPath><clipPath clipPathUnits="userSpaceOnUse" id="clipPath3457"><path d="m 0,792.03 612,0 0,-792 -612,0 0,792 z" id="path3459"/></clipPath><clipPath clipPathUnits="userSpaceOnUse" id="clipPath3469"><path d="M 0,792 612,792 612,0 0,0 0,792 z" id="path3471"/></clipPath><clipPath clipPathUnits="userSpaceOnUse" id="clipPath3475"><path d="m 0,792.03 612,0 0,-792 -612,0 0,792 z" id="path3477"/></clipPath><clipPath clipPathUnits="userSpaceOnUse" id="clipPath3489"><path d="m 419.956,179.982 0,-49.667 128.667,0 0,49.667" id="path3491"/></clipPath><clipPath clipPathUnits="userSpaceOnUse" id="clipPath3495"><path d="m 419.956,176.394 140.251,0 0,-45.914 -140.251,0 0,45.914 z" clip-rule="evenodd" id="path3497"/></clipPath><clipPath clipPathUnits="userSpaceOnUse" id="clipPath3501"><path d="M 0,792 612,792 612,0 0,0 0,792 z" id="path3503"/></clipPath><clipPath clipPathUnits="userSpaceOnUse" id="clipPath3507"><path d="m 0,792.03 612,0 0,-792 -612,0 0,792 z" id="path3509"/></clipPath><clipPath clipPathUnits="userSpaceOnUse" id="clipPath3671"><path d="M 0,792 612,792 612,0 0,0 0,792 z" id="path3673"/></clipPath><clipPath clipPathUnits="userSpaceOnUse" id="clipPath3677"><path d="m 0,792.03 612,0 0,-792 -612,0 0,792 z" id="path3679"/></clipPath></defs><sodipodi:namedview pagecolor="#ffffff" bordercolor="#666666" borderopacity="1" objecttolerance="10" gridtolerance="10" guidetolerance="10" inkscape:pageopacity="0" inkscape:pageshadow="2" inkscape:window-width="1680" inkscape:window-height="997" id="namedview2871" showgrid="false" inkscape:zoom="1" inkscape:cx="179.75992" inkscape:cy="13.226051" inkscape:window-x="0" inkscape:window-y="0" inkscape:window-maximized="0" inkscape:current-layer="g2879"/><g id="g2879" inkscape:groupmode="layer" inkscape:label="USNC News and Notes - July 08" transform="matrix(1.25,0,0,-1.25,-537.445,217.95875)"><g id="g3505" clip-path="url(#clipPath3507)"><g id="g3511" transform="translate(441.901,146.255)"><path d="m 0,0 4.558,0 0.812,2.263 2.426,0 L 7.64,0 l 4.524,0 0.072,14.439 -6.066,0 L 0,0 z m 8.674,11.81 0.032,0 -0.625,-6.757 -1.754,0 2.347,6.757" style="fill:#231f20;fill-opacity:1;fill-rule:nonzero;stroke:none" id="path3513"/></g><g id="g3515" transform="translate(457.659,160.694)"><path d="m 0,0 5.722,0 0.623,-8.738 0.032,0 1.868,8.738 3.772,0 -3.089,-14.439 -5.688,0 -0.704,8.513 -0.032,0 -1.821,-8.513 -3.771,0 L 0,0" style="fill:#231f20;fill-opacity:1;fill-rule:nonzero;stroke:none" id="path3517"/></g><g id="g3519" transform="translate(476.218,156.731)"><path d="m 0,0 c 0.099,0.465 0.145,0.829 0.069,1.091 -0.076,0.263 -0.306,0.405 -0.766,0.405 -0.474,0 -0.899,-0.526 -1.017,-1.071 -0.574,-2.691 5.933,-1.093 4.812,-6.332 -0.818,-3.822 -3.368,-5.017 -6.171,-5.017 -2.836,0 -5.654,0.466 -4.571,4.612 l 4.342,0 c -0.103,-0.565 -0.169,-1.031 -0.111,-1.375 0.06,-0.324 0.232,-0.525 0.608,-0.525 0.59,0 1.133,0.546 1.285,1.254 0.683,3.196 -5.895,1.112 -4.764,6.392 0.744,3.478 2.833,4.975 6.179,4.975 C 4.09,4.409 4.588,2.366 4.082,0 L 0,0" style="fill:#231f20;fill-opacity:1;fill-rule:nonzero;stroke:none" id="path3521"/></g><g id="g3523" transform="translate(482.701,160.694)"><path d="m 0,0 4.426,0 -3.087,-14.439 -4.426,0 L 0,0" style="fill:#231f20;fill-opacity:1;fill-rule:nonzero;stroke:none" id="path3525"/></g><g id="g3527" transform="translate(433.546,149.871)"><path d="m 0,0 c 0,12.206 16.154,22.1 36.08,22.1 10.638,0 20.198,-2.821 26.801,-7.308 -6.564,5.859 -17.572,9.704 -30.049,9.704 -20.114,0 -36.422,-9.989 -36.422,-22.309 0,-6.885 5.094,-13.039 13.096,-17.13 C 3.605,-11.01 0,-5.763 0,0" style="fill:#0075bf;fill-opacity:1;fill-rule:nonzero;stroke:none" id="path3529"/></g><g id="g3531" transform="translate(453.956,137.815)"><path d="m 0,0 0.825,0 0.358,0.831 1.045,0 L 2.233,0 3.058,0 2.853,3.927 1.874,3.927 0,0 z m 2.213,3.245 0.011,0 0.005,-1.765 -0.771,0 0.755,1.765" style="fill:#231f20;fill-opacity:1;fill-rule:nonzero;stroke:none" id="path3533"/></g><g id="g3535" transform="translate(457.896,140.774)"><path d="m 0,0 0.726,0 -0.064,-0.303 0.011,0 c 0.25,0.27 0.509,0.38 0.828,0.38 0.347,0 0.564,-0.17 0.582,-0.473 l 0.011,0 c 0.182,0.313 0.491,0.473 0.848,0.473 0.501,0 0.671,-0.313 0.549,-0.886 l -0.457,-2.15 -0.759,0 0.44,2.068 c 0.052,0.247 -10e-4,0.385 -0.215,0.385 -0.242,0 -0.432,-0.165 -0.504,-0.506 l -0.414,-1.947 -0.759,0 0.44,2.068 c 0.052,0.247 -10e-4,0.385 -0.216,0.385 -0.242,0 -0.431,-0.165 -0.503,-0.506 l -0.414,-1.947 -0.759,0 L 0,0" style="fill:#231f20;fill-opacity:1;fill-rule:nonzero;stroke:none" id="path3537"/></g><g id="g3539" transform="translate(463.877,139.179)"><path d="m 0,0 0.036,0.171 c 0.193,0.907 0.122,1.501 -0.764,1.501 -1.023,0 -1.334,-0.737 -1.502,-1.529 -0.157,-0.737 -0.293,-1.584 0.807,-1.584 0.715,0 1.127,0.385 1.301,1.073 l -0.682,0 c -0.122,-0.363 -0.267,-0.556 -0.52,-0.556 -0.28,0 -0.301,0.341 -0.228,0.688 L -1.501,0 0,0 z m -1.406,0.451 0.025,0.116 c 0.058,0.275 0.213,0.588 0.516,0.588 0.313,0 0.314,-0.253 0.235,-0.704 l -0.776,0" style="fill:#231f20;fill-opacity:1;fill-rule:nonzero;stroke:none" id="path3541"/></g><g id="g3543" transform="translate(464.612,140.774)"><path d="m 0,0 0.726,0 -0.084,-0.396 0.011,0 c 0.214,0.286 0.469,0.473 0.782,0.473 0.044,0 0.093,-0.006 0.135,-0.011 L 1.416,-0.66 c -0.076,0.006 -0.157,0.011 -0.234,0.011 -0.264,0 -0.59,-0.138 -0.674,-0.534 l -0.378,-1.776 -0.759,0 L 0,0" style="fill:#231f20;fill-opacity:1;fill-rule:nonzero;stroke:none" id="path3545"/></g><g id="g3547" transform="translate(466.686,141.786)"><path d="m 0,0 0.759,0 -0.138,-0.649 -0.759,0 L 0,0 z m -0.215,-1.012 0.759,0 -0.629,-2.959 -0.759,0 0.629,2.959" style="fill:#231f20;fill-opacity:1;fill-rule:nonzero;stroke:none" id="path3549"/></g><g id="g3551" transform="translate(468.961,139.707)"><path d="m 0,0 c 0.061,0.286 0.071,0.594 -0.215,0.594 -0.374,0 -0.504,-0.33 -0.65,-1.012 -0.155,-0.731 -0.153,-1.034 0.188,-1.034 0.253,0 0.414,0.214 0.516,0.693 l 0.725,0 c -0.164,-0.776 -0.581,-1.21 -1.384,-1.21 -0.759,0 -1.055,0.368 -0.802,1.556 0.258,1.216 0.831,1.557 1.529,1.557 C 0.606,1.144 0.874,0.698 0.726,0 L 0,0" style="fill:#231f20;fill-opacity:1;fill-rule:nonzero;stroke:none" id="path3553"/></g><g id="g3555" transform="translate(470.793,139.866)"><path d="M 0,0 0.017,0.083 C 0.067,0.313 0.22,0.468 0.452,0.468 0.704,0.468 0.775,0.33 0.727,0.104 0.684,-0.093 0.589,-0.181 0.35,-0.242 L -0.103,-0.357 C -0.657,-0.5 -0.93,-0.726 -1.048,-1.281 c -0.084,-0.396 0.007,-0.847 0.535,-0.847 0.363,0 0.594,0.077 0.835,0.385 l 0.012,0 C 0.335,-1.842 0.332,-1.958 0.361,-2.051 l 0.726,0 c -0.04,0.17 -0.03,0.297 0.029,0.572 l 0.331,1.556 c 0.113,0.534 0.022,0.908 -0.88,0.908 -0.572,0 -1.089,-0.231 -1.233,-0.913 L -0.681,0 0,0 z m 0.459,-1.155 c -0.07,-0.324 -0.361,-0.456 -0.565,-0.456 -0.203,0 -0.246,0.187 -0.199,0.412 0.057,0.264 0.21,0.413 0.532,0.479 0.097,0.022 0.235,0.071 0.355,0.148 L 0.459,-1.155" style="fill:#231f20;fill-opacity:1;fill-rule:nonzero;stroke:none" id="path3557"/></g><g id="g3559" transform="translate(472.955,140.774)"><path d="m 0,0 0.726,0 -0.074,-0.347 0.011,0 c 0.222,0.292 0.525,0.424 0.844,0.424 0.473,0 0.698,-0.259 0.574,-0.842 l -0.466,-2.194 -0.759,0 0.434,2.041 c 0.063,0.296 -0.011,0.412 -0.237,0.412 -0.259,0 -0.436,-0.16 -0.506,-0.49 l -0.417,-1.963 -0.759,0 L 0,0" style="fill:#231f20;fill-opacity:1;fill-rule:nonzero;stroke:none" id="path3561"/></g><g id="g3563" transform="translate(478.166,141.742)"><path d="m 0,0 0.385,-2.689 0.012,0 L 0.968,0 1.694,0 0.86,-3.927 l -0.903,0 -0.383,2.75 -0.011,0 -0.585,-2.75 -0.725,0 L -0.913,0 0,0" style="fill:#231f20;fill-opacity:1;fill-rule:nonzero;stroke:none" id="path3565"/></g><g id="g3567" transform="translate(480.666,139.866)"><path d="M 0,0 0.017,0.083 C 0.066,0.313 0.22,0.468 0.452,0.468 0.704,0.468 0.774,0.33 0.727,0.104 0.684,-0.093 0.589,-0.181 0.35,-0.242 L -0.103,-0.357 C -0.656,-0.5 -0.93,-0.726 -1.048,-1.281 c -0.084,-0.396 0.007,-0.847 0.535,-0.847 0.363,0 0.594,0.077 0.835,0.385 l 0.011,0 C 0.335,-1.842 0.332,-1.958 0.362,-2.051 l 0.725,0 c -0.041,0.17 -0.03,0.297 0.029,0.572 L 1.447,0.077 C 1.56,0.611 1.468,0.985 0.566,0.985 -0.005,0.985 -0.522,0.754 -0.667,0.072 L -0.682,0 0,0 z m 0.458,-1.155 c -0.069,-0.324 -0.36,-0.456 -0.564,-0.456 -0.204,0 -0.247,0.187 -0.198,0.412 0.055,0.264 0.209,0.413 0.531,0.479 0.097,0.022 0.235,0.071 0.355,0.148 L 0.458,-1.155" style="fill:#231f20;fill-opacity:1;fill-rule:nonzero;stroke:none" id="path3569"/></g><g id="g3571" transform="translate(483.173,141.621)"><path d="m 0,0 0.759,0 -0.18,-0.847 0.44,0 -0.11,-0.517 -0.44,0 -0.34,-1.601 c -0.049,-0.231 -0.02,-0.324 0.2,-0.324 0.061,0 0.123,0.005 0.173,0.011 L 0.39,-3.806 c -0.169,-0.017 -0.326,-0.033 -0.502,-0.033 -0.594,0 -0.665,0.181 -0.538,0.781 l 0.36,1.694 -0.385,0 0.11,0.517 0.385,0 L 0,0" style="fill:#231f20;fill-opacity:1;fill-rule:nonzero;stroke:none" id="path3573"/></g><g id="g3575" transform="translate(484.698,141.786)"><path d="m 0,0 0.759,0 -0.138,-0.649 -0.759,0 L 0,0 z m -0.215,-1.012 0.759,0 -0.63,-2.959 -0.758,0 0.629,2.959" style="fill:#231f20;fill-opacity:1;fill-rule:nonzero;stroke:none" id="path3577"/></g><g id="g3579" transform="translate(485.362,139.294)"><path d="M 0,0 C -0.219,-1.028 -0.081,-1.573 0.835,-1.557 1.704,-1.557 2.117,-1.012 2.332,0 2.551,1.028 2.413,1.573 1.496,1.557 0.628,1.557 0.215,1.012 0,0 z M 0.759,0 C 0.887,0.605 1.013,1.04 1.387,1.04 1.695,1.04 1.729,0.737 1.573,0 1.416,-0.737 1.253,-1.04 0.945,-1.04 0.571,-1.04 0.63,-0.605 0.759,0" style="fill:#231f20;fill-opacity:1;fill-rule:nonzero;stroke:none" id="path3581"/></g><g id="g3583" transform="translate(488.415,140.774)"><path d="m 0,0 0.726,0 -0.074,-0.347 0.011,0 c 0.222,0.292 0.525,0.424 0.844,0.424 0.473,0 0.698,-0.259 0.575,-0.842 l -0.467,-2.194 -0.759,0 0.434,2.041 c 0.063,0.296 -0.012,0.412 -0.237,0.412 -0.259,0 -0.436,-0.16 -0.505,-0.49 l -0.418,-1.963 -0.759,0 L 0,0" style="fill:#231f20;fill-opacity:1;fill-rule:nonzero;stroke:none" id="path3585"/></g><g id="g3587" transform="translate(491.649,139.866)"><path d="M 0,0 0.017,0.083 C 0.067,0.313 0.22,0.468 0.451,0.468 0.704,0.468 0.774,0.33 0.726,0.104 0.684,-0.093 0.589,-0.181 0.35,-0.242 L -0.104,-0.357 C -0.656,-0.5 -0.93,-0.726 -1.048,-1.281 c -0.084,-0.396 0.007,-0.847 0.535,-0.847 0.363,0 0.594,0.077 0.835,0.385 l 0.011,0 C 0.334,-1.842 0.332,-1.958 0.361,-2.051 l 0.727,0 c -0.041,0.17 -0.031,0.297 0.028,0.572 l 0.33,1.556 C 1.56,0.611 1.469,0.985 0.567,0.985 -0.005,0.985 -0.522,0.754 -0.667,0.072 L -0.682,0 0,0 z m 0.458,-1.155 c -0.068,-0.324 -0.36,-0.456 -0.564,-0.456 -0.203,0 -0.246,0.187 -0.199,0.412 0.057,0.264 0.209,0.413 0.531,0.479 0.099,0.022 0.236,0.071 0.356,0.148 L 0.458,-1.155" style="fill:#231f20;fill-opacity:1;fill-rule:nonzero;stroke:none" id="path3589"/></g><g id="g3591" transform="translate(494.044,141.742)"><path d="m 0,0 0.759,0 -0.835,-3.927 -0.759,0 L 0,0" style="fill:#231f20;fill-opacity:1;fill-rule:nonzero;stroke:none" id="path3593"/></g><g id="g3595" transform="translate(496.742,139.042)"><path d="m 0,0 -0.025,-0.116 c -0.078,-0.368 -0.023,-0.605 0.395,-0.605 0.242,0 0.505,0.155 0.575,0.485 0.076,0.357 -0.077,0.489 -0.561,0.671 -0.652,0.241 -0.915,0.533 -0.776,1.188 0.163,0.764 0.713,1.154 1.461,1.154 0.704,0 1.151,-0.302 0.991,-1.056 l -0.023,-0.11 -0.76,0 C 1.356,1.98 1.276,2.194 0.973,2.194 0.615,2.194 0.474,1.969 0.424,1.738 0.373,1.496 0.413,1.348 0.718,1.205 L 1.273,0.94 C 1.812,0.682 1.901,0.379 1.799,-0.099 1.623,-0.93 1.037,-1.304 0.18,-1.304 c -0.897,0 -1.16,0.418 -1.006,1.144 L -0.792,0 0,0" style="fill:#231f20;fill-opacity:1;fill-rule:nonzero;stroke:none" id="path3597"/></g><g id="g3599" transform="translate(499.65,141.621)"><path d="m 0,0 0.759,0 -0.18,-0.847 0.44,0 -0.11,-0.517 -0.44,0 -0.34,-1.601 c -0.05,-0.231 -0.02,-0.324 0.2,-0.324 0.061,0 0.122,0.005 0.174,0.011 L 0.39,-3.806 c -0.169,-0.017 -0.326,-0.033 -0.502,-0.033 -0.594,0 -0.666,0.181 -0.538,0.781 l 0.36,1.694 -0.385,0 0.11,0.517 0.385,0 L 0,0" style="fill:#231f20;fill-opacity:1;fill-rule:nonzero;stroke:none" id="path3601"/></g><g id="g3603" transform="translate(501.417,139.866)"><path d="M 0,0 0.017,0.083 C 0.067,0.313 0.22,0.468 0.451,0.468 0.704,0.468 0.774,0.33 0.726,0.104 0.684,-0.093 0.589,-0.181 0.35,-0.242 L -0.104,-0.357 C -0.656,-0.5 -0.93,-0.726 -1.048,-1.281 c -0.084,-0.396 0.007,-0.847 0.535,-0.847 0.363,0 0.594,0.077 0.835,0.385 l 0.011,0 C 0.335,-1.842 0.332,-1.958 0.362,-2.051 l 0.725,0 c -0.04,0.17 -0.03,0.297 0.028,0.572 L 1.446,0.077 C 1.56,0.611 1.469,0.985 0.567,0.985 -0.005,0.985 -0.522,0.754 -0.667,0.072 L -0.682,0 0,0 z m 0.458,-1.155 c -0.069,-0.324 -0.361,-0.456 -0.564,-0.456 -0.204,0 -0.246,0.187 -0.198,0.412 0.056,0.264 0.208,0.413 0.531,0.479 0.098,0.022 0.234,0.071 0.355,0.148 L 0.458,-1.155" style="fill:#231f20;fill-opacity:1;fill-rule:nonzero;stroke:none" id="path3605"/></g><g id="g3607" transform="translate(503.579,140.774)"><path d="m 0,0 0.725,0 -0.072,-0.347 0.01,0 c 0.222,0.292 0.525,0.424 0.844,0.424 0.472,0 0.698,-0.259 0.574,-0.842 l -0.466,-2.194 -0.759,0 0.433,2.041 c 0.064,0.296 -0.01,0.412 -0.236,0.412 -0.259,0 -0.436,-0.16 -0.506,-0.49 l -0.417,-1.963 -0.76,0 L 0,0" style="fill:#231f20;fill-opacity:1;fill-rule:nonzero;stroke:none" id="path3609"/></g><g id="g3611" transform="translate(507.217,137.815)"><path d="m 0,0 0.727,0 0.834,3.927 -0.759,0 -0.264,-1.243 -0.011,0 c -0.11,0.236 -0.278,0.352 -0.564,0.352 -0.621,0 -1.004,-0.456 -1.238,-1.556 -0.234,-1.101 -0.044,-1.557 0.577,-1.557 0.297,0 0.531,0.116 0.754,0.391 l 0.011,0 L 0,0 z m -0.516,1.48 c 0.137,0.643 0.273,0.973 0.603,0.973 0.335,0 0.331,-0.33 0.195,-0.973 C 0.145,0.836 0.009,0.506 -0.327,0.506 c -0.33,0 -0.325,0.33 -0.189,0.974" style="fill:#231f20;fill-opacity:1;fill-rule:nonzero;stroke:none" id="path3613"/></g><g id="g3615" transform="translate(509.562,139.866)"><path d="M 0,0 0.017,0.083 C 0.066,0.313 0.22,0.468 0.451,0.468 0.704,0.468 0.774,0.33 0.726,0.104 0.684,-0.093 0.589,-0.181 0.35,-0.242 L -0.104,-0.357 C -0.656,-0.5 -0.93,-0.726 -1.048,-1.281 c -0.084,-0.396 0.007,-0.847 0.535,-0.847 0.363,0 0.594,0.077 0.835,0.385 l 0.011,0 C 0.334,-1.842 0.332,-1.958 0.361,-2.051 l 0.726,0 c -0.04,0.17 -0.03,0.297 0.028,0.572 l 0.331,1.556 c 0.113,0.534 0.022,0.908 -0.879,0.908 -0.572,0 -1.089,-0.231 -1.234,-0.913 L -0.682,0 0,0 z m 0.458,-1.155 c -0.069,-0.324 -0.361,-0.456 -0.564,-0.456 -0.204,0 -0.246,0.187 -0.198,0.412 0.056,0.264 0.208,0.413 0.531,0.479 0.097,0.022 0.234,0.071 0.355,0.148 L 0.458,-1.155" style="fill:#231f20;fill-opacity:1;fill-rule:nonzero;stroke:none" id="path3617"/></g><g id="g3619" transform="translate(511.724,140.774)"><path d="m 0,0 0.726,0 -0.084,-0.396 0.011,0 c 0.215,0.286 0.469,0.473 0.782,0.473 0.044,0 0.093,-0.006 0.136,-0.011 L 1.416,-0.66 c -0.075,0.006 -0.157,0.011 -0.234,0.011 -0.263,0 -0.59,-0.138 -0.674,-0.534 l -0.378,-1.776 -0.759,0 L 0,0" style="fill:#231f20;fill-opacity:1;fill-rule:nonzero;stroke:none" id="path3621"/></g><g id="g3623" transform="translate(514.445,137.815)"><path d="m 0,0 0.726,0 0.834,3.927 -0.759,0 -0.264,-1.243 -0.011,0 C 0.417,2.92 0.25,3.036 -0.037,3.036 -0.659,3.036 -1.041,2.58 -1.275,1.48 -1.509,0.379 -1.32,-0.077 -0.699,-0.077 c 0.298,0 0.531,0.116 0.754,0.391 l 0.011,0 L 0,0 z m -0.517,1.48 c 0.137,0.643 0.273,0.973 0.603,0.973 0.336,0 0.332,-0.33 0.195,-0.973 C 0.144,0.836 0.008,0.506 -0.328,0.506 c -0.329,0 -0.325,0.33 -0.189,0.974" style="fill:#231f20;fill-opacity:1;fill-rule:nonzero;stroke:none" id="path3625"/></g><g id="g3627" transform="translate(516.438,138.783)"><path d="m 0,0 -0.021,-0.099 c -0.055,-0.258 0.047,-0.429 0.305,-0.429 0.231,0 0.41,0.116 0.459,0.352 C 0.784,0.017 0.676,0.104 0.54,0.16 L 0.047,0.352 c -0.386,0.148 -0.545,0.407 -0.456,0.825 0.104,0.489 0.497,0.891 1.277,0.891 0.688,0 0.947,-0.308 0.833,-0.841 l -0.025,-0.122 -0.682,0 C 1.057,1.403 1.001,1.551 0.753,1.551 0.56,1.551 0.372,1.441 0.328,1.232 0.297,1.089 0.349,0.968 0.585,0.886 L 1.008,0.732 C 1.453,0.572 1.577,0.33 1.482,-0.115 1.351,-0.737 0.823,-1.045 0.185,-1.045 c -0.853,0 -1.01,0.374 -0.889,0.941 L -0.682,0 0,0" style="fill:#231f20;fill-opacity:1;fill-rule:nonzero;stroke:none" id="path3629"/></g><g id="g3631" transform="translate(519.499,137.815)"><path d="m 0,0 0.835,3.927 0.792,0 L 0.792,0 0,0" style="fill:#231f20;fill-opacity:1;fill-rule:nonzero;stroke:none" id="path3633"/></g><g id="g3635" transform="translate(521.487,140.774)"><path d="m 0,0 0.725,0 -0.073,-0.347 0.011,0 c 0.221,0.292 0.525,0.424 0.843,0.424 0.473,0 0.699,-0.259 0.575,-0.842 l -0.466,-2.194 -0.76,0 0.434,2.041 c 0.063,0.296 -0.011,0.412 -0.237,0.412 -0.258,0 -0.435,-0.16 -0.505,-0.49 l -0.417,-1.963 -0.759,0 L 0,0" style="fill:#231f20;fill-opacity:1;fill-rule:nonzero;stroke:none" id="path3637"/></g><g id="g3639" transform="translate(524.369,138.783)"><path d="m 0,0 -0.021,-0.099 c -0.055,-0.258 0.046,-0.429 0.305,-0.429 0.231,0 0.409,0.116 0.46,0.352 C 0.785,0.017 0.677,0.104 0.54,0.16 L 0.047,0.352 C -0.339,0.5 -0.499,0.759 -0.41,1.177 c 0.104,0.489 0.498,0.891 1.279,0.891 0.687,0 0.946,-0.308 0.833,-0.841 l -0.026,-0.122 -0.682,0 C 1.057,1.403 1.001,1.551 0.753,1.551 0.561,1.551 0.372,1.441 0.328,1.232 0.297,1.089 0.349,0.968 0.584,0.886 L 1.008,0.732 C 1.452,0.572 1.577,0.33 1.483,-0.115 1.35,-0.737 0.823,-1.045 0.185,-1.045 c -0.853,0 -1.009,0.374 -0.889,0.941 L -0.682,0 0,0" style="fill:#231f20;fill-opacity:1;fill-rule:nonzero;stroke:none" id="path3641"/></g><g id="g3643" transform="translate(527.023,141.621)"><path d="m 0,0 0.759,0 -0.18,-0.847 0.44,0 -0.11,-0.517 -0.44,0 -0.34,-1.601 c -0.049,-0.231 -0.02,-0.324 0.2,-0.324 0.061,0 0.122,0.005 0.174,0.011 L 0.39,-3.806 c -0.169,-0.017 -0.326,-0.033 -0.502,-0.033 -0.594,0 -0.666,0.181 -0.538,0.781 l 0.361,1.694 -0.386,0 0.11,0.517 0.385,0 L 0,0" style="fill:#231f20;fill-opacity:1;fill-rule:nonzero;stroke:none" id="path3645"/></g><g id="g3647" transform="translate(528.549,141.786)"><path d="m 0,0 0.758,0 -0.138,-0.649 -0.759,0 L 0,0 z m -0.216,-1.012 0.759,0 -0.629,-2.959 -0.759,0 0.629,2.959" style="fill:#231f20;fill-opacity:1;fill-rule:nonzero;stroke:none" id="path3649"/></g><g id="g3651" transform="translate(529.971,141.621)"><path d="m 0,0 0.759,0 -0.18,-0.847 0.439,0 -0.109,-0.517 -0.44,0 -0.341,-1.601 c -0.049,-0.231 -0.019,-0.324 0.201,-0.324 0.061,0 0.122,0.005 0.173,0.011 L 0.39,-3.806 c -0.169,-0.017 -0.326,-0.033 -0.502,-0.033 -0.594,0 -0.666,0.181 -0.539,0.781 l 0.361,1.694 -0.385,0 0.11,0.517 0.385,0 L 0,0" style="fill:#231f20;fill-opacity:1;fill-rule:nonzero;stroke:none" id="path3653"/></g><g id="g3655" transform="translate(532.217,138.162)"><path d="m 0,0 -0.011,0 c -0.221,-0.291 -0.525,-0.424 -0.843,-0.424 -0.474,0 -0.699,0.259 -0.575,0.842 l 0.466,2.194 0.759,0 -0.434,-2.04 c -0.063,-0.297 0.012,-0.413 0.237,-0.413 0.259,0 0.436,0.16 0.505,0.49 l 0.418,1.963 0.759,0 -0.628,-2.959 -0.726,0 L 0,0" style="fill:#231f20;fill-opacity:1;fill-rule:nonzero;stroke:none" id="path3657"/></g><g id="g3659" transform="translate(534.349,141.621)"><path d="m 0,0 0.759,0 -0.181,-0.847 0.44,0 -0.109,-0.517 -0.44,0 -0.34,-1.601 c -0.049,-0.231 -0.02,-0.324 0.2,-0.324 0.06,0 0.122,0.005 0.173,0.011 L 0.389,-3.806 c -0.168,-0.017 -0.325,-0.033 -0.501,-0.033 -0.594,0 -0.666,0.181 -0.539,0.781 l 0.361,1.694 -0.385,0 0.11,0.517 0.385,0 L 0,0" style="fill:#231f20;fill-opacity:1;fill-rule:nonzero;stroke:none" id="path3661"/></g><g id="g3663" transform="translate(536.813,139.63)"><path d="m 0,0 c 0.08,0.451 0.078,0.704 -0.236,0.704 -0.301,0 -0.457,-0.313 -0.515,-0.588 L -0.776,0 0,0 z m -0.871,-0.451 -0.051,-0.236 c -0.073,-0.347 -0.052,-0.688 0.229,-0.688 0.253,0 0.398,0.192 0.519,0.556 l 0.682,0 c -0.173,-0.688 -0.585,-1.073 -1.3,-1.073 -1.101,0 -0.964,0.847 -0.807,1.584 0.168,0.792 0.479,1.529 1.502,1.529 0.885,0 0.956,-0.594 0.764,-1.501 l -0.037,-0.171 -1.501,0" style="fill:#231f20;fill-opacity:1;fill-rule:nonzero;stroke:none" id="path3665"/></g></g></g></svg>